{"title":"Black.Mass.2015.WEBRip.480p.x264.AAC-VYTO [P2PDL]","uid":13204387,"size":469163624,"categoryP":"video","categoryS":"movies","magnet":"?xt=urn:btih:ab11ba26aa5b7a35c6211bd817ea7f028425a751&amp;dn=Black.Mass.2015.WEBRip.480p.x264.AAC-VYTO+%5BP2PDL%5D&amp;tr=udp%3A%2F%2Ftracker.leechers-paradise.org%3A6969&amp;tr=udp%3A%2F%2Fzer0day.ch%3A1337&amp;tr=udp%3A%2F%2Fopen.demonii.com%3A1337&amp;tr=udp%3A%2F%2Ftracker.coppersurfer.tk%3A6969&amp;tr=udp%3A%2F%2Fexodus.desync.com%3A6969","seeders":0,"leechers":1,"uploader":"VYTOP2PDL","files":7,"time":1452578259,"description":"Black.Mass.2015.WEBRip.480p.x264.AAC-VYTO\r\n\r\n\r\nGenre: Biography, Crime, Drama \nhttp://www.imdb.com/title/tt1355683/\r\n\r\n\r\nFormat                                   : MPEG-4\r\nFile size                                : 437 MiB\r\nDuration                                 : 2h 2mn\r\nOverall bit rate                         : 498 Kbps\r\n\r\nVideo\r\nFormat                                   : AVC\r\nBit rate                                 : 463 Kbps\r\nWidth                                    : 720 pixels\r\nHeight                                   : 304 pixels\r\nDisplay aspect ratio                     : 2.35:1\r\nFrame rate mode                          : Constant\r\nFrame rate                               : 23.976 (24000/1001) fps\r\nBit depth                                : 8 bits\r\nStream size                              : 406 MiB (93%)\r\nWriting library                          : x264\r\n\r\nAudio\r\nFormat                                   : AAC\r\nBit rate mode                            : Variable\r\nBit rate                                 : 32.0 Kbps\r\nChannel(s)                               : 2 channels \r\nChannel positions                        : Front: L R \r\nSampling rate                            : 48.0 KHz\r\nStream size                              : 28.0 MiB (6%)\r\nLanguage                                 : English\r\n\r\nSubtitle                                 : Yes (English)\r\n\r\nSceen Shots: (Click to view)\r\n \nhttp://ititli.com/b5 \nhttp://ititli.com/bB \nhttp://ititli.com/bN \nhttp://ititli.com/bP \nhttp://ititli.com/bf \nhttp://ititli.com/bu \nhttp://ititli.com/bv \nhttp://ititli.com/bR \nhttp://ititli.com/by \nhttp://ititli.com/b3 \nhttp://ititli.com/bE \nhttp://ititli.com/bQ\r\n\r\n----------------------------------------------------------------------------------------------------\r\n\r\n\r\nEncoder Notes: Looking For Early Access To Anything You Can Provide WEBDL, DVDScr, DVDR, BluRay,\r\nDirect Audio, Music Releases and Seedboxes. If You Got anything to offer please contact us.\r\n\r\nSupport us by donating BC - 1FgwdzPsd1y25Gea8wP1qni35uGCtmkRCD\r\n\r\nSend some love!\r\nFind us and join us!\r\n\r\nTry all new image sharing/hosting service at:            \nhttp://ititli.com/","torrent":{"xt":"urn:btih:ab11ba26aa5b7a35c6211bd817ea7f028425a751","amp;dn":"Black.Mass.2015.WEBRip.480p.x264.AAC-VYTO+%5BP2PDL%5D","amp;tr":["udp%3A%2F%2Ftracker.leechers-paradise.org%3A6969","udp%3A%2F%2Fzer0day.ch%3A1337","udp%3A%2F%2Fopen.demonii.com%3A1337","udp%3A%2F%2Ftracker.coppersurfer.tk%3A6969","udp%3A%2F%2Fexodus.desync.com%3A6969"],"infoHash":"ab11ba26aa5b7a35c6211bd817ea7f028425a751","infoHashBuffer":{"type":"Buffer","data":[171,17,186,38,170,91,122,53,198,33,27,216,23,234,127,2,132,37,167,81]},"announce":[],"urlList":[]}}